<?xml version="1.0" encoding="UTF-8"?>
<svg version="1.1" xmlns="http://www.w3.org/2000/svg" width="407" height="500">
<path d="M0 0 C6.33525367 0.04885454 12.67053792 0.0854459 19.00588596 0.11952347 C25.19621167 0.15326662 31.38645625 0.19454754 37.57669318 0.24184877 C41.23997595 0.26975808 44.90321978 0.29486465 48.56656766 0.31250775 C52.61289027 0.33235443 56.65892755 0.36793039 60.70512891 0.40501225 C61.89660031 0.40874348 63.08807172 0.41247471 64.31564832 0.41631901 C78.0177956 0.57293571 78.0177956 0.57293571 82.30034375 4.42722905 C85.8336662 11.69016964 83.68190273 17.92113322 81.55034375 25.30222905 C81.07975537 26.98046757 81.07975537 26.98046757 80.59966016 28.69260991 C79.55764179 32.37977135 78.49211273 36.05965829 77.42534375 39.73972905 C77.04508127 41.07286143 76.66553426 42.40619809 76.28667188 43.73972905 C75.32823989 47.10954997 74.35593296 50.47507821 73.37303662 53.83784306 C72.81359629 55.75677171 72.26219303 57.6780377 71.71098828 59.59934819 C68.93211642 68.9415846 65.9127502 77.18824841 58.42534375 83.73972905 C57.72409375 84.39972905 57.02284375 85.05972905 56.30034375 85.73972905 C47.58355248 91.80358384 39.76267813 93.47440552 29.26909375 93.38328373 C28.00078214 93.39216115 26.73247052 93.40103856 25.42572522 93.41018498 C21.97665822 93.43388647 18.52824375 93.42752351 15.0791409 93.41569626 C11.44047538 93.4087828 7.80198556 93.43104008 4.16338086 93.4502393 C-2.7339454 93.48245021 -9.63106264 93.49035931 -16.5284555 93.48866498 C-26.59381191 93.48720843 -36.65906029 93.52104635 -46.72434497 93.55639851 C-48.22522996 93.56162707 -49.72611497 93.56684944 -51.227 93.57206547 C-52.32885292 93.5759729 -52.32885292 93.5759729 -53.4529655 93.57995927 C-57.75607737 93.59439267 -62.05911863 93.60138705 -66.3622539 93.6018585 C-83.98765271 93.59107665 -83.98765271 93.59107665 -101.602 94.14695561 C-102.70915614 94.19715163 -102.70915614 94.19715163 -103.83867908 94.24836171 C-115.31216085 94.91169832 -123.70650515 99.59269552 -131.5473125 107.8061353 C-139.71327831 117.49780172 -142.44075142 129.29362059 -141.57465625 141.73972905 C-139.37743849 156.18922888 -131.63555791 166.59199932 -120.7348125 175.83347905 C-117.4820012 178.70395267 -114.48140846 181.81118583 -111.45746875 184.91941655 C-109.69712286 186.80356803 -109.69712286 186.80356803 -107.57465625 187.73972905 C-107.57465625 188.39972905 -107.57465625 189.05972905 -107.57465625 189.73972905 C-106.992 189.99367436 -106.40934375 190.24761967 -105.80903125 190.5092603 C-103.33277592 191.87293237 -101.76944999 193.38198108 -99.82465625 195.42722905 C-96.61792187 198.78891068 -93.21239804 201.82340085 -89.70649219 204.86399662 C-85.56130837 208.51120772 -81.58253128 212.33773805 -77.57465625 216.1342603 C-73.61772317 219.86707021 -69.5965207 223.50266719 -65.48969531 227.06980717 C-38.96436407 250.20000422 -38.96436407 250.20000422 -37.30121875 266.40379155 C-36.9876233 275.54630486 -39.45027218 281.78455748 -44.88715625 289.05222905 C-52.15025029 296.31532309 -60.04838838 298.95932216 -70.24799609 299.06980717 C-108.24617348 298.83350826 -144.43505166 281.4013923 -173.57465625 257.73972905 C-174.65445236 256.88698372 -175.73518682 256.03542529 -176.81684375 255.18504155 C-182.57574788 250.59843342 -182.57574788 250.59843342 -184.57465625 248.73972905 C-184.57465625 248.07972905 -184.57465625 247.41972905 -184.57465625 246.73972905 C-185.11090625 246.53605717 -185.64715625 246.3323853 -186.19965625 246.12254155 C-206.43433858 234.341164 -222.16448861 203.67930471 -228.65278125 182.23972905 C-238.64733811 144.29429281 -235.44415752 105.23013613 -216.57465625 70.73972905 C-216.07063281 69.80515873 -215.56660937 68.87058842 -215.0473125 67.9076978 C-211.77282811 62.14787068 -207.80290024 57.14045962 -203.52778125 52.0873853 C-201.47266282 49.7012677 -201.47266282 49.7012677 -199.57465625 46.73972905 C-198.91465625 46.73972905 -198.25465625 46.73972905 -197.57465625 46.73972905 C-197.30653125 46.14160405 -197.03840625 45.54347905 -196.76215625 44.92722905 C-195.57548219 42.74125051 -194.47866512 41.32640311 -192.57465625 39.73972905 C-191.91465625 39.73972905 -191.25465625 39.73972905 -190.57465625 39.73972905 C-190.57465625 39.07972905 -190.57465625 38.41972905 -190.57465625 37.73972905 C-162.94726799 11.08877654 -125.38685517 1.06809243 -87.98871875 0.1576978 C-87.12970588 0.13624384 -86.27069301 0.11478989 -85.38564944 0.09268582 C-56.93083319 -0.58357909 -28.45889618 -0.22352488 0 0 Z " fill="#FE7B13" transform="translate(287.57465624809265,36.260270953178406)"/>
<path d="M0 0 C7.05386879 2.48580587 13.80606139 5.58151744 20.50927734 8.88427734 C21.50266113 9.36767578 21.50266113 9.36767578 22.51611328 9.86083984 C56.77635147 26.70845323 83.26470998 56.54954802 95.61450195 92.75537109 C96.6917255 96.10328887 97.62520532 99.48080758 98.50927734 102.88427734 C98.99074219 104.73279297 98.99074219 104.73279297 99.48193359 106.61865234 C107.30872973 142.87674048 99.2224506 180.26094582 79.40771484 211.16162109 C73.59911981 219.41167739 66.72698104 226.85164298 59.50927734 233.88427734 C58.99751953 234.44115234 58.48576172 234.99802734 57.95849609 235.57177734 C34.42763781 260.56386666 -3.17716027 274.8183678 -37.14897728 276.0129118 C-38.40437624 276.01458764 -39.6597752 276.01626348 -40.95321655 276.01799011 C-41.65945085 276.02025567 -42.36568515 276.02252123 -43.09332049 276.02485543 C-45.43592869 276.03113442 -47.77847812 276.03037004 -50.12109375 276.02954102 C-51.81046116 276.03253629 -53.49982789 276.03593966 -55.18919373 276.03971863 C-59.76156334 276.04852451 -64.33391421 276.05089528 -68.90629148 276.05153441 C-71.76681047 276.05224675 -74.62732475 276.05438454 -77.48784256 276.05703163 C-87.47806346 276.06627314 -97.46827106 276.07036794 -107.45849609 276.06958008 C-116.75384955 276.06897932 -126.04914496 276.07953379 -135.34448373 276.09532374 C-143.34049163 276.10841994 -151.33648061 276.11376311 -159.33249915 276.11312467 C-164.10137006 276.11287033 -168.87018935 276.11568608 -173.63904953 276.12630272 C-178.12557974 276.13601898 -182.61200931 276.13603878 -187.09854317 276.12878609 C-188.7391595 276.12774469 -190.37978222 276.13007656 -192.02038765 276.13614655 C-212.85956687 276.20821705 -212.85956687 276.20821705 -219.61572266 271.88427734 C-222.75031455 266.86893032 -222.04178027 261.60055595 -220.88977051 255.92205811 C-220.03785973 252.64403112 -219.10332055 249.40215956 -218.13134766 246.15771484 C-217.78569763 244.97005524 -217.44004761 243.78239563 -217.08392334 242.55874634 C-216.35385051 240.06088567 -215.61726264 237.56492093 -214.87451172 235.07080078 C-213.74343127 231.26838306 -212.63505569 227.45989269 -211.52978516 223.64990234 C-210.81497179 221.21461501 -210.09886916 218.77970564 -209.38134766 216.34521484 C-209.05201233 215.21481781 -208.722677 214.08442078 -208.38336182 212.91976929 C-205.15563068 202.14559909 -201.60373269 193.02343391 -191.51025391 187.14990234 C-184.92154205 183.77930676 -179.9632243 181.76655201 -172.54772949 181.73951721 C-171.33110626 181.73261871 -170.11448303 181.72572021 -168.86099243 181.71861267 C-167.51556411 181.71589813 -166.17013564 181.71326096 -164.82470703 181.71069336 C-163.40517983 181.70438546 -161.9856546 181.6976194 -160.56613159 181.69042969 C-157.50941886 181.67577021 -154.45271371 181.6640408 -151.39598083 181.65448189 C-146.55321708 181.63899904 -141.71051808 181.61504658 -136.86779785 181.58958435 C-123.09664007 181.51847328 -109.32544457 181.45876226 -95.55419922 181.4074707 C-87.94806071 181.37906627 -80.34198607 181.34362668 -72.73591471 181.30081695 C-67.93225609 181.27419932 -63.12866969 181.25619892 -58.32495213 181.24477971 C-55.31973938 181.23558022 -52.31461337 181.21818398 -49.30945206 181.19860077 C-47.274553 181.18769871 -45.23960945 181.18638172 -43.2046814 181.18547058 C-25.38715596 181.04573607 -11.76802573 177.28876966 1.50927734 164.88427734 C2.16927734 163.89427734 2.82927734 162.90427734 3.50927734 161.88427734 C4.16927734 161.88427734 4.82927734 161.88427734 5.50927734 161.88427734 C5.75806641 161.37638672 6.00685547 160.86849609 6.26318359 160.34521484 C7.2603731 158.37584372 8.29818397 156.42706128 9.34912109 154.48583984 C18.23238355 137.83393682 21.64258911 119.72076676 16.66943359 101.19287109 C11.42757102 86.24385562 2.81139765 73.88897343 -8.49072266 62.88427734 C-8.49072266 62.22427734 -8.49072266 61.56427734 -8.49072266 60.88427734 C-9.48072266 60.55427734 -10.47072266 60.22427734 -11.49072266 59.88427734 C-11.49072266 59.22427734 -11.49072266 58.56427734 -11.49072266 57.88427734 C-12.04244141 57.66126953 -12.59416016 57.43826172 -13.16259766 57.20849609 C-16.22129025 55.46873638 -18.29810386 53.22663253 -20.74072266 50.69677734 C-24.47385916 46.88021535 -28.27086554 43.22711217 -32.33056641 39.75927734 C-35.63624646 36.88997096 -38.84141969 33.91117111 -42.05322266 30.93774414 C-44.94578471 28.26828841 -47.89428285 25.70307544 -50.92822266 23.19677734 C-55.96207563 18.84459196 -60.08943948 13.13393197 -60.72900391 6.36083984 C-60.9305476 -1.38268108 -60.9305476 -1.38268108 -58.61572266 -5.24072266 C-46.63833716 -15.80900398 -13.23884421 -4.36758367 0 0 Z " fill="#00519A" transform="translate(263.49072265625,189.11572265625)"/>
<path d="M0 0 C0 3.35247584 -0.74910254 4.99227508 -2.0625 8.0625 C-5.10297029 15.77073455 -7.16207494 23.67381764 -9.25634766 31.68310547 C-11.58760293 40.5774478 -14.13261132 49.39203374 -16.86669922 58.17114258 C-18.40993016 63.28281745 -19.54106319 67.65260923 -19 73 C-16.64382519 76.19766581 -14.83352906 77.32430026 -11 78 C-8.54767707 78.10361939 -6.12310274 78.15643828 -3.67062378 78.16062927 C-2.55982852 78.168261 -2.55982852 78.168261 -1.42659295 78.17604691 C1.05691148 78.19175166 3.54038682 78.20029186 6.02392578 78.20874023 C7.8049691 78.21828166 9.58601058 78.22817294 11.36705017 78.23838806 C17.22644857 78.26978689 23.08586109 78.29006451 28.9453125 78.30859375 C29.94553861 78.31189107 30.94576472 78.31518839 31.97630072 78.31858563 C41.43232854 78.34940528 50.88835971 78.37608542 60.34442329 78.39300442 C72.38611763 78.41480818 84.4273602 78.45653733 96.4688741 78.52644199 C104.9610077 78.57403675 113.45302114 78.59798609 121.94528377 78.6052013 C127.00108577 78.61011097 132.05637904 78.62473338 137.11203384 78.6649456 C158.86725883 78.82984858 179.03506136 78.58557629 200 72 C200.83871265 71.74569654 201.67742531 71.49139309 202.5415535 71.22938347 C222.25398956 65.2205475 240.40041545 54.80334354 255.2199707 40.45361328 C258.80774691 37 258.80774691 37 261 37 C261.40412109 36.09507812 261.40412109 36.09507812 261.81640625 35.171875 C263.01320552 32.9757681 264.07014066 31.87537879 265.9375 30.25 C274.60002179 21.85931466 281.07140412 10.40631176 287 0 C287.33 0.66 287.66 1.32 288 2 C281.99117515 16.25524557 270.94274774 28.33783554 260 39 C259.48824219 39.556875 258.97648437 40.11375 258.44921875 40.6875 C234.91836046 65.67958931 197.31356238 79.93409046 163.34174538 81.12863445 C162.08634642 81.1303103 160.83094746 81.13198614 159.5375061 81.13371277 C158.8312718 81.13597833 158.12503751 81.13824388 157.39740217 81.14057809 C155.05479397 81.14685708 152.71224453 81.1460927 150.36962891 81.14526367 C148.6802615 81.14825894 146.99089477 81.15166232 145.30152893 81.15544128 C140.72915932 81.16424716 136.15680844 81.16661793 131.58443117 81.16725707 C128.72391218 81.16796941 125.86339791 81.17010719 123.0028801 81.17275429 C113.01265919 81.1819958 103.0224516 81.18609059 93.03222656 81.18530273 C83.73687311 81.18470198 74.44157769 81.19525644 65.14623892 81.2110464 C57.15023102 81.2241426 49.15424205 81.22948577 41.15822351 81.22884732 C36.38935259 81.22859299 31.62053331 81.23140874 26.85167313 81.24202538 C22.36514292 81.25174164 17.87871335 81.25176144 13.39217949 81.24450874 C11.75156316 81.24346734 10.11094044 81.24579921 8.47033501 81.2518692 C-12.36884421 81.3239397 -12.36884421 81.3239397 -19.125 77 C-22.25959189 71.98465298 -21.55105761 66.7162786 -20.39904785 61.03778076 C-19.54713708 57.75975377 -18.6125979 54.51788222 -17.640625 51.2734375 C-17.29497498 50.08577789 -16.94932495 48.89811829 -16.59320068 47.67446899 C-15.86312785 45.17660832 -15.12653998 42.68064359 -14.38378906 40.18652344 C-13.25270862 36.38410572 -12.14433304 32.57561535 -11.0390625 28.765625 C-10.32424913 26.33033766 -9.60814651 23.8954283 -8.890625 21.4609375 C-8.56128967 20.33054047 -8.23195435 19.20014343 -7.89263916 18.03549194 C-3.55438088 3.55438088 -3.55438088 3.55438088 0 0 Z " fill="#093A74" transform="translate(63,384)"/>
<path d="M0 0 C7.92570202 0.07313527 15.85146431 0.13833544 23.77723861 0.20307946 C40.00988206 0.33584772 56.24242891 0.47792142 72.47493422 0.62664545 C72.47493422 1.28664545 72.47493422 1.94664545 72.47493422 2.62664545 C11.75493422 2.62664545 -48.96506578 2.62664545 -111.52506578 2.62664545 C-111.52506578 2.29664545 -111.52506578 1.96664545 -111.52506578 1.62664545 C-103.69883109 0.39758056 -95.89996805 0.23038783 -87.99772203 0.0368017 C-87.13642246 0.01510478 -86.27512289 -0.00659213 -85.38772333 -0.02894652 C-56.93280984 -0.70931179 -28.45843144 -0.26357141 0 0 Z " fill="#E47E33" transform="translate(287.525065779686,36.37335455417633)"/>
<path d="M0 0 C3.46119514 1.53830895 6.10077409 3.5727411 9 6 C9.56074219 6.46792969 10.12148437 6.93585938 10.69921875 7.41796875 C14.30817884 10.46327347 17.65965613 13.65965613 21 17 C22.70113287 18.48061564 24.4210724 19.9344752 26.15625 21.375 C28.54561502 23.48088104 30.75618633 25.73973609 33 28 C33.98000354 28.9484441 34.9618473 29.89498961 35.9453125 30.83984375 C46.91623944 41.46164102 55.88000291 51.91456192 62.5625 65.75 C62.98039795 66.61302734 63.3982959 67.47605469 63.82885742 68.36523438 C67.78348499 76.96961 69.35778174 85.18838652 69.125 94.625 C69.11597656 95.34300781 69.10695313 96.06101562 69.09765625 96.80078125 C69.07454659 98.53400579 69.03870104 100.26705349 69 102 C68.34 102 67.68 102 67 102 C66.94392578 100.49373047 66.94392578 100.49373047 66.88671875 98.95703125 C65.78653172 74.18606133 56.71233971 55.24622551 39 38 C39 37.34 39 36.68 39 36 C38.01 35.67 37.02 35.34 36 35 C36 34.34 36 33.68 36 33 C35.17242187 32.66548828 35.17242187 32.66548828 34.328125 32.32421875 C31.2694324 30.58445903 29.1926188 28.34235518 26.75 25.8125 C23.02484825 22.00410119 19.23432168 18.35962232 15.1875 14.89453125 C12.2719433 12.36945089 9.41433136 9.78412546 6.5625 7.1875 C6.02955322 6.70667969 5.49660645 6.22585937 4.94750977 5.73046875 C1.11644598 2.23289195 1.11644598 2.23289195 0 0 Z " fill="#05316C" transform="translate(216,214)"/>
<path d="M0 0 C3.8604794 3.58956857 6.70835774 7.31461201 9.375 11.875 C9.76075195 12.52992432 10.14650391 13.18484863 10.54394531 13.85961914 C17.37900527 25.66576008 22.5681019 37.78799793 26 51 C26.32097656 52.23234375 26.64195312 53.4646875 26.97265625 54.734375 C33.16003584 83.39777068 29.97737922 116.92025584 16 143 C15.20645928 140.70529455 14.82572147 139.46816848 15.68725586 137.15380859 C16.04698486 136.53328613 16.40671387 135.91276367 16.77734375 135.2734375 C18.98800292 131.15992043 20.36032626 127.12599872 21.5625 122.625 C21.77156982 121.84390869 21.98063965 121.06281738 22.19604492 120.25805664 C31.61540061 83.98862564 27.48166806 48.60804159 9 16 C7.00791644 12.72892166 4.93761717 9.5129239 2.79370117 6.33935547 C0 2.18733965 0 2.18733965 0 0 Z " fill="#08336F" transform="translate(336,241)"/>
<path d="M0 0 C0.93707291 -0.00014603 1.87414581 -0.00029205 2.83961487 -0.0004425 C5.92915176 0.00025275 9.01862796 0.00802707 12.1081543 0.01586914 C14.25335151 0.01773469 16.39854915 0.01915795 18.54374695 0.02015686 C24.18422628 0.02397122 29.82467978 0.0337923 35.46514893 0.04486084 C41.22310029 0.05509819 46.98105583 0.05965946 52.73901367 0.06469727 C64.0326448 0.07541552 75.32625677 0.09247898 86.61987305 0.11352539 C86.61987305 0.44352539 86.61987305 0.77352539 86.61987305 1.11352539 C78.18567898 1.37888209 69.75136471 1.63988615 61.31688023 1.89582825 C57.39738589 2.01489055 53.47794268 2.13526976 49.55859375 2.2590332 C34.50676346 2.73336999 19.45778539 3.20110343 4.3972168 3.23852539 C3.40879288 3.24311768 2.42036896 3.24770996 1.4019928 3.25244141 C-3.95039762 3.24070017 -9.08421576 2.8971259 -14.38012695 2.11352539 C-14.38012695 1.78352539 -14.38012695 1.45352539 -14.38012695 1.11352539 C-9.58835642 -0.12064617 -4.91031753 -0.02006827 0 0 Z " fill="#F66A06" transform="translate(195.380126953125,126.886474609375)"/>
<path d="M0 0 C-10.78434819 6.64706636 -19.09216585 7.98078756 -31.5546875 7.68359375 C-33.19375468 7.67049969 -34.8328497 7.66055358 -36.47195435 7.65357971 C-40.73706883 7.62715216 -45.00045143 7.55865993 -49.26489258 7.48065186 C-53.63599227 7.40838622 -58.00737836 7.37693462 -62.37890625 7.34179688 C-70.92005598 7.26725444 -79.45981116 7.14816151 -88 7 C-88 6.67 -88 6.34 -88 6 C-75.35317397 5.41479499 -62.71298266 4.99302493 -50.0546875 4.78125 C-49.01037064 4.76287582 -47.96605377 4.74450165 -46.89009094 4.72557068 C-42.63885484 4.65100687 -38.38773839 4.57645689 -34.13619995 4.52127075 C-31.10754045 4.48193521 -28.07923937 4.43127972 -25.05078125 4.37890625 C-23.68643448 4.36633789 -23.68643448 4.36633789 -22.29452515 4.35351562 C-17.16529357 4.2537399 -12.8634993 3.65341611 -8 2 C-8 1.34 -8 0.68 -8 0 C-4.90645403 -0.99435406 -3.09720845 -0.87840996 0 0 Z " fill="#E57D2D" transform="translate(344,122)"/>
<path d="M0 0 C0.68126953 -0.01224609 1.36253906 -0.02449219 2.06445312 -0.03710938 C5.79079809 -0.04805848 7.38241571 0.06744381 10.5625 2.1875 C9.71486084 2.217229 9.71486084 2.217229 8.85009766 2.24755859 C6.29542003 2.34268236 3.74157459 2.45241058 1.1875 2.5625 C0.29804688 2.5934375 -0.59140625 2.624375 -1.5078125 2.65625 C-2.35859375 2.69492188 -3.209375 2.73359375 -4.0859375 2.7734375 C-5.26422119 2.82056885 -5.26422119 2.82056885 -6.46630859 2.86865234 C-8.66752939 3.0274465 -8.66752939 3.0274465 -10.4375 5.1875 C-11.56307256 10.3161169 -12.28389001 15.54338998 -9.4375 20.1875 C-8.7775 20.5175 -8.1175 20.8475 -7.4375 21.1875 C-7.1075 21.5175 -6.7775 21.8475 -6.4375 22.1875 C-5.1175 21.5275 -3.7975 20.8675 -2.4375 20.1875 C-2.1075 21.1775 -1.7775 22.1675 -1.4375 23.1875 C-3.0875 24.5075 -4.7375 25.8275 -6.4375 27.1875 C-5.7775 27.1875 -5.1175 27.1875 -4.4375 27.1875 C-4.4375 27.8475 -4.4375 28.5075 -4.4375 29.1875 C-3.7775 29.1875 -3.1175 29.1875 -2.4375 29.1875 C-1.7775 30.5075 -1.1175 31.8275 -0.4375 33.1875 C-3.97230483 31.73153414 -5.75738133 29.89602557 -8.0625 26.875 C-8.65289062 26.11574219 -9.24328125 25.35648438 -9.8515625 24.57421875 C-13.74559039 18.71399452 -14.30791088 13.08861486 -13.4375 6.1875 C-9.82863668 0.17272779 -6.57436591 0.00618473 0 0 Z " fill="#09346B" transform="translate(216.4375,180.8125)"/>
<path d="M0 0 C5.01635705 4.29587489 7.42454186 9.25612693 10.1875 15.1875 C10.62513672 16.08275391 11.06277344 16.97800781 11.51367188 17.90039062 C15.67455435 26.69859249 17.36425725 34.92587916 17.125 44.625 C17.11597656 45.34300781 17.10695313 46.06101562 17.09765625 46.80078125 C17.07454659 48.53400579 17.03870104 50.26705349 17 52 C16.34 52 15.68 52 15 52 C14.96261719 50.99582031 14.92523438 49.99164063 14.88671875 48.95703125 C14.18006641 33.04658751 11.20255207 17.67430326 1.25 4.72265625 C0 3 0 3 0 0 Z " fill="#07387A" transform="translate(268,264)"/>
<path d="M0 0 C1.43467041 4.53957295 0.06361738 8.08095177 -1.30859375 12.484375 C-1.55416519 13.29996887 -1.79973663 14.11556274 -2.05274963 14.95587158 C-2.83826244 17.55687517 -3.63766821 20.15336807 -4.4375 22.75 C-4.97292653 24.51404354 -5.50744279 26.27836364 -6.04101562 28.04296875 C-7.35014106 32.36525776 -8.67174123 36.68355421 -10 41 C-10.33 41 -10.66 41 -11 41 C-10.2389346 34.36530047 -8.45714702 28.15251121 -6.55273438 21.76367188 C-6.32521484 20.95091797 -6.09769531 20.13816406 -5.86328125 19.30078125 C-5.54290894 18.20503784 -5.54290894 18.20503784 -5.21606445 17.0871582 C-4.94579573 14.47639285 -5.7862295 13.27241988 -7 11 C-6 9 -6 9 -4 7 C-3.01 7 -2.02 7 -1 7 C-0.67 4.69 -0.34 2.38 0 0 Z " fill="#E76E18" transform="translate(368,58)"/>
<path d="M0 0 C0.67095703 0.58007812 0.67095703 0.58007812 1.35546875 1.171875 C1.96003906 1.69265625 2.56460938 2.2134375 3.1875 2.75 C3.82171875 3.2965625 4.4559375 3.843125 5.109375 4.40625 C6.68220486 5.73210658 8.30440766 6.99912076 9.9375 8.25 C10.618125 8.8275 11.29875 9.405 12 10 C12 10.66 12 11.32 12 12 C12.56203125 12.23460937 13.1240625 12.46921875 13.703125 12.7109375 C16.54635891 14.30663 18.48098127 16.28924543 20.75 18.625 C21.54921875 19.44226563 22.3484375 20.25953125 23.171875 21.1015625 C23.77515625 21.72804687 24.3784375 22.35453125 25 23 C22.92446352 23.5534764 21.15634036 24 19 24 C18.896875 23.236875 18.79375 22.47375 18.6875 21.6875 C17.93965597 18.76410969 17.39335648 17.77285665 15 16 C14.34 15.87625 13.68 15.7525 13 15.625 C10.0151043 14.69222009 9.51628422 12.66866022 8 10 C4.86486307 6.36984145 2.8628852 4.41681873 -2 4 C-2 3.01 -2 2.02 -2 1 C-1.34 0.67 -0.68 0.34 0 0 Z " fill="#E06D1A" transform="translate(168,214)"/>
<path d="M0 0 C0.66 0 1.32 0 2 0 C2.76519562 7.80499529 0.11675419 13.92365105 -3 21 C-3.46792969 22.08023437 -3.93585938 23.16046875 -4.41796875 24.2734375 C-6.06600019 27.11374848 -6.95206 27.94898621 -10 29 C-9.29423828 27.61941406 -9.29423828 27.61941406 -8.57421875 26.2109375 C-4.27231322 17.55068913 -1.55400133 9.60520824 0 0 Z " fill="#083377" transform="translate(282,317)"/>
<path d="M0 0 C0.66 0.33 1.32 0.66 2 1 C1.67 1.66 1.34 2.32 1 3 C-0.32 3 -1.64 3 -3 3 C-3 3.66 -3 4.32 -3 5 C-3.99 5 -4.98 5 -6 5 C-6 5.66 -6 6.32 -6 7 C-6.66 7 -7.32 7 -8 7 C-8 7.66 -8 8.32 -8 9 C-11.96 10.98 -11.96 10.98 -16 13 C-16 13.66 -16 14.32 -16 15 C-17.65 15 -19.3 15 -21 15 C-17.28627812 11.01040164 -13.43282005 8.11778486 -8.8125 5.25 C-8.18408203 4.85167969 -7.55566406 4.45335937 -6.90820312 4.04296875 C-4.64117937 2.61244039 -2.39924102 1.19962051 0 0 Z " fill="#EA7020" transform="translate(127,53)"/>
<path d="M0 0 C3.32459195 3.32459195 3.21839641 7.05940309 3.375 11.625 C3.3362079 17.9558713 1.6559601 22.83016347 -2 28 C-2.99 28.66 -3.98 29.32 -5 30 C-5.33 29.01 -5.66 28.02 -6 27 C-5.01 27 -4.02 27 -3 27 C-2.67 25.02 -2.34 23.04 -2 21 C-1.01 20.67 -0.02 20.34 1 20 C1.10152799 13.2314676 1.03026944 6.69675136 0 0 Z " fill="#E17122" transform="translate(247,294)"/>
<path d="M0 0 C3 1 3 1 4 2 C5.32 1.34 6.64 0.68 8 0 C8.33 0.99 8.66 1.98 9 3 C7.35 4.32 5.7 5.64 4 7 C4.66 7 5.32 7 6 7 C6 7.66 6 8.32 6 9 C6.66 9 7.32 9 8 9 C8.66 10.32 9.32 11.64 10 13 C6.91245575 11.64416535 4.95292371 10.17282591 2.75 7.625 C2.22921875 7.03976563 1.7084375 6.45453125 1.171875 5.8515625 C0 4 0 4 0 0 Z " fill="#064780" transform="translate(206,201)"/>
<path d="M0 0 C2.97 0.33 5.94 0.66 9 1 C9.33 1.99 9.66 2.98 10 4 C10.99 3.67 11.98 3.34 13 3 C13.99 4.65 14.98 6.3 16 8 C10.18738629 6.26017005 5.16830006 4.1889511 0 1 C0 0.67 0 0.34 0 0 Z " fill="#E76C1C" transform="translate(144,313)"/>
<path d="M0 0 C0.99 0.33 1.98 0.66 3 1 C3.33 1.99 3.66 2.98 4 4 C6.64 4.33 9.28 4.66 12 5 C8.36576791 7.32590854 5.22911669 7.16265833 1 7 C1 6.01 1 5.02 1 4 C-0.32 3.67 -1.64 3.34 -3 3 C-2.01 2.01 -1.02 1.02 0 0 Z " fill="#F17A1F" transform="translate(217,328)"/>
<path d="M0 0 C0.66 0.33 1.32 0.66 2 1 C1.23302204 2.41875765 0.46123222 3.83491452 -0.3125 5.25 C-0.74175781 6.03890625 -1.17101562 6.8278125 -1.61328125 7.640625 C-2.9396214 9.89727134 -4.38884224 11.93998597 -6 14 C-6.33 12.02 -6.66 10.04 -7 8 C-6.0409375 7.6596875 -6.0409375 7.6596875 -5.0625 7.3125 C-2.72567164 6.15983399 -2.72567164 6.15983399 -2.375 3.4375 C-2.189375 2.2309375 -2.189375 2.2309375 -2 1 C-1.34 0.67 -0.68 0.34 0 0 Z " fill="#E96D19" transform="translate(153,144)"/>
<path d="M0 0 C3.15624686 1.38736126 5.19863433 3.00392708 7.5625 5.5 C9.67524223 7.72096733 11.41613626 9.27742417 14 11 C14 11.66 14 12.32 14 13 C10.29115966 11.31268143 7.6722904 9.0622868 4.68359375 6.33984375 C2.92781556 4.78521084 2.92781556 4.78521084 0 4 C0 2.68 0 1.36 0 0 Z " fill="#E86815" transform="translate(195,240)"/>
<path d="M0 0 C5.5621732 -0.34054122 8.96109261 0.75048777 14 3 C16.32189536 3.4054103 18.65515344 3.76072994 21 4 C21 4.66 21 5.32 21 6 C13.64987044 5.42351925 6.98575424 3.28953836 0 1 C0 0.67 0 0.34 0 0 Z " fill="#E3761E" transform="translate(175,327)"/>
<path d="M0 0 C3.46119514 1.53830895 6.10077409 3.5727411 9 6 C9.60714844 6.50273437 10.21429688 7.00546875 10.83984375 7.5234375 C15.87081866 11.74163732 15.87081866 11.74163732 17 14 C12.54913246 13.55814632 9.8993706 10.49297908 6.8125 7.5625 C6.26658203 7.05912109 5.72066406 6.55574219 5.15820312 6.03710938 C1.14729421 2.29458841 1.14729421 2.29458841 0 0 Z " fill="#063673" transform="translate(216,214)"/>
<path d="M0 0 C-12.48519362 6.88838269 -12.48519362 6.88838269 -19 6 C-15.49461443 4.03698408 -11.86648272 3.04097612 -8 2 C-8 1.34 -8 0.68 -8 0 C-4.90645403 -0.99435406 -3.09720845 -0.87840996 0 0 Z " fill="#E86D18" transform="translate(344,122)"/>
<path d="M0 0 C6.35356588 0.70595176 10.2290828 7.36715886 14 12 C10.56247993 10.4722133 7.81046312 8.49818944 5 6 C5 5.34 5 4.68 5 4 C4.360625 3.71125 3.72125 3.4225 3.0625 3.125 C1 2 1 2 0 0 Z " fill="#E68924" transform="translate(98,279)"/>
<path d="M0 0 C0.66 0 1.32 0 2 0 C3.33203125 1.5390625 3.33203125 1.5390625 4.8125 3.625 C7.41229586 7.21489011 10.12989032 10.62340038 13 14 C12.67 14.66 12.34 15.32 12 16 C10.56041153 14.41856529 9.12341355 12.83477221 7.6875 11.25 C6.88699219 10.36828125 6.08648437 9.4865625 5.26171875 8.578125 C0 2.58031088 0 2.58031088 0 0 Z " fill="#E16F1E" transform="translate(79,256)"/>
<path d="M0 0 C0.66 0 1.32 0 2 0 C2.38218767 1.65614657 2.71395102 3.32457024 3 5 C2 6 2 6 -1.5625 6.0625 C-2.696875 6.041875 -3.83125 6.02125 -5 6 C-3.38405168 3.95880212 -1.7143618 1.95927063 0 0 Z " fill="#F27A1B" transform="translate(103,69)"/>
<path d="M0 0 C2.3125 -0.3125 2.3125 -0.3125 5 0 C6.04892238 1.63631892 7.04906703 3.30485863 8 5 C10.08533633 5.87822312 10.08533633 5.87822312 12 6 C11.67 7.32 11.34 8.64 11 10 C9.16375669 8.52444734 7.3310715 7.04446569 5.5 5.5625 C4.4790625 4.73878906 3.458125 3.91507812 2.40625 3.06640625 C1.6121875 2.38449219 0.818125 1.70257813 0 1 C0 0.67 0 0.34 0 0 Z " fill="#E8761C" transform="translate(113,292)"/>
<path d="M0 0 C3.99926986 2.97088618 6.92118304 6.12948725 10 10 C7 10 7 10 5 8.4375 C4.34 7.963125 3.68 7.48875 3 7 C2.01 7.33 1.02 7.66 0 8 C0.185625 7.236875 0.37125 6.47375 0.5625 5.6875 C1.22819173 2.91032625 1.22819173 2.91032625 0 0 Z " fill="#EC6D16" transform="translate(153,199)"/>
<path d="M0 0 C1.65 0.33 3.3 0.66 5 1 C2.15497903 2.89668064 -0.57299885 4.23263478 -3.6875 5.625 C-4.68136719 6.07101563 -5.67523438 6.51703125 -6.69921875 6.9765625 C-7.45847656 7.31429687 -8.21773437 7.65203125 -9 8 C-8.2265625 5.58203125 -8.2265625 5.58203125 -7 3 C-3.375 1.6875 -3.375 1.6875 0 1 C0 0.67 0 0.34 0 0 Z " fill="#E76E19" transform="translate(172,129)"/>
<path d="M0 0 C0 0.66 0 1.32 0 2 C-1.65 2.33 -3.3 2.66 -5 3 C-5.33 4.32 -5.66 5.64 -6 7 C-8.475 6.01 -8.475 6.01 -11 5 C-11 4.34 -11 3.68 -11 3 C-9.73160474 2.49384702 -8.46016898 1.99530901 -7.1875 1.5 C-6.12595703 1.08234375 -6.12595703 1.08234375 -5.04296875 0.65625 C-3 0 -3 0 0 0 Z " fill="#F07016" transform="translate(149,45)"/>
<path d="M0 0 C0.99 0 1.98 0 3 0 C3 0.66 3 1.32 3 2 C4.98 1.67 6.96 1.34 9 1 C9.33 1.99 9.66 2.98 10 4 C10.66 4 11.32 4 12 4 C12 4.66 12 5.32 12 6 C10.37433394 5.52309796 8.74948689 5.04340334 7.125 4.5625 C6.22007812 4.29566406 5.31515625 4.02882813 4.3828125 3.75390625 C2 3 2 3 0 2 C0 1.34 0 0.68 0 0 Z " fill="#E86E1A" transform="translate(162,321)"/>
<path d="M0 0 C2.30636275 2.30636275 4.17775977 4.26663965 6 7 C1.48279689 7.36625971 1.48279689 7.36625971 -0.8125 5.625 C-2 4 -2 4 -2 2 C-1.34 2 -0.68 2 0 2 C0 1.34 0 0.68 0 0 Z " fill="#F7831B" transform="translate(96,272)"/>
<path d="M0 0 C0.33 0.66 0.66 1.32 1 2 C0.67 2.99 0.34 3.98 0 5 C-0.99 5 -1.98 5 -3 5 C-3.103125 5.598125 -3.20625 6.19625 -3.3125 6.8125 C-4.09824033 9.31258286 -4.96918853 10.37535082 -7 12 C-7.66 12 -8.32 12 -9 12 C-7.63055898 9.05043472 -6.12169591 6.47531189 -4 4 C-3.34 4 -2.68 4 -2 4 C-1.34 2.68 -0.68 1.36 0 0 Z " fill="#EF7E2E" transform="translate(92,79)"/>
<path d="M0 0 C0 0.66 0 1.32 0 2 C-4.29 2.66 -8.58 3.32 -13 4 C-13 3.34 -13 2.68 -13 2 C-8.49646738 0.24252386 -4.82360189 -0.19294408 0 0 Z " fill="#FB710A" transform="translate(209,330)"/>
<path d="M0 0 C0.99 0.33 1.98 0.66 3 1 C3.33333333 2.33333333 3.66666667 3.66666667 4 5 C4.99 5.33 5.98 5.66 7 6 C6.01 6.495 6.01 6.495 5 7 C2.5249829 5.88568235 0.32116581 4.41849022 -2 3 C-2 2.34 -2 1.68 -2 1 C-1.34 0.67 -0.68 0.34 0 0 Z " fill="#EC6F15" transform="translate(137,306)"/>
<path d="M0 0 C1.12894876 0.93274109 2.25300876 1.87140122 3.375 2.8125 C4.00148437 3.33457031 4.62796875 3.85664063 5.2734375 4.39453125 C7 6 7 6 9 9 C8.01 9 7.02 9 6 9 C6 8.34 6 7.68 6 7 C5.01 6.67 4.02 6.34 3 6 C3 5.34 3 4.68 3 4 C1.68 3.34 0.36 2.68 -1 2 C-0.67 1.34 -0.34 0.68 0 0 Z " fill="#032A5E" transform="translate(249,243)"/>
<path d="M0 0 C1.14926266 0.95421808 2.29430541 1.91352045 3.4375 2.875 C4.07558594 3.40867188 4.71367187 3.94234375 5.37109375 4.4921875 C7 6 7 6 8 8 C7.46375 7.71125 6.9275 7.4225 6.375 7.125 C3.64719516 5.83288192 0.87387282 4.91441408 -2 4 C-2 3.01 -2 2.02 -2 1 C-1.34 0.67 -0.68 0.34 0 0 Z " fill="#E26B20" transform="translate(168,214)"/>
<path d="M0 0 C1.65 1.65 3.3 3.3 5 5 C3.02 5.99 3.02 5.99 1 7 C1 6.34 1 5.68 1 5 C0.01 5 -0.98 5 -2 5 C-2 4.34 -2 3.68 -2 3 C-1.34 3 -0.68 3 0 3 C0 2.01 0 1.02 0 0 Z " fill="#E8741E" transform="translate(219,261)"/>
<path d="M0 0 C0.33 0.66 0.66 1.32 1 2 C3.52733235 2.65555119 3.52733235 2.65555119 6 3 C5.67 4.65 5.34 6.3 5 8 C2.5 5.6875 2.5 5.6875 0 3 C0 2.01 0 1.02 0 0 Z " fill="#EC681A" transform="translate(74,248)"/>
<path d="M0 0 C2.475 0.99 2.475 0.99 5 2 C5 2.66 5 3.32 5 4 C6.32 4.66 7.64 5.32 9 6 C9 6.33 9 6.66 9 7 C6.6875 7.3125 6.6875 7.3125 4 7 C2.25 4.625 2.25 4.625 1 2 C0.67 1.34 0.34 0.68 0 0 Z " fill="#F15B13" transform="translate(175,222)"/>
<path d="M0 0 C0.66 0 1.32 0 2 0 C2 0.66 2 1.32 2 2 C2.99 1.67 3.98 1.34 5 1 C5.99 2.65 6.98 4.3 8 6 C5.69 5.34 3.38 4.68 1 4 C0.67 2.68 0.34 1.36 0 0 Z " fill="#EF6E14" transform="translate(152,315)"/>
<path d="M0 0 C0.99 0.33 1.98 0.66 3 1 C0.375 5.875 0.375 5.875 -3 7 C-3 5.68 -3 4.36 -3 3 C-2.01 3 -1.02 3 0 3 C0 2.01 0 1.02 0 0 Z " fill="#EE7F1E" transform="translate(348,113)"/>
<path d="" fill="#FFFFFF" transform="translate(0,0)"/>
<path d="" fill="#FFFFFF" transform="translate(0,0)"/>
<path d="" fill="#FFFFFF" transform="translate(0,0)"/>
<path d="" fill="#FFFFFF" transform="translate(0,0)"/>
<path d="" fill="#FFFFFF" transform="translate(0,0)"/>
<path d="" fill="#FFFFFF" transform="translate(0,0)"/>
<path d="" fill="#FFFFFF" transform="translate(0,0)"/>
<path d="" fill="#FFFFFF" transform="translate(0,0)"/>
<path d="" fill="#FFFFFF" transform="translate(0,0)"/>
<path d="" fill="#FFFFFF" transform="translate(0,0)"/>
<path d="" fill="#FFFFFF" transform="translate(0,0)"/>
<path d="" fill="#FFFFFF" transform="translate(0,0)"/>
<path d="" fill="#FFFFFF" transform="translate(0,0)"/>
<path d="" fill="#FFFFFF" transform="translate(0,0)"/>
<path d="" fill="#FFFFFF" transform="translate(0,0)"/>
<path d="" fill="#FFFFFF" transform="translate(0,0)"/>
<path d="" fill="#FFFFFF" transform="translate(0,0)"/>
<path d="" fill="#FFFFFF" transform="translate(0,0)"/>
<path d="" fill="#FFFFFF" transform="translate(0,0)"/>
<path d="" fill="#FFFFFF" transform="translate(0,0)"/>
<path d="" fill="#FFFFFF" transform="translate(0,0)"/>
<path d="" fill="#FFFFFF" transform="translate(0,0)"/>
<path d="" fill="#FFFFFF" transform="translate(0,0)"/>
<path d="" fill="#FFFFFF" transform="translate(0,0)"/>
<path d="" fill="#FFFFFF" transform="translate(0,0)"/>
<path d="" fill="#FFFFFF" transform="translate(0,0)"/>
<path d="" fill="#FFFFFF" transform="translate(0,0)"/>
<path d="" fill="#FFFFFF" transform="translate(0,0)"/>
<path d="" fill="#FFFFFF" transform="translate(0,0)"/>
<path d="" fill="#FFFFFF" transform="translate(0,0)"/>
<path d="" fill="#FFFFFF" transform="translate(0,0)"/>
<path d="" fill="#FFFFFF" transform="translate(0,0)"/>
<path d="" fill="#FFFFFF" transform="translate(0,0)"/>
<path d="" fill="#FFFFFF" transform="translate(0,0)"/>
<path d="" fill="#FFFFFF" transform="translate(0,0)"/>
<path d="" fill="#FFFFFF" transform="translate(0,0)"/>
<path d="" fill="#FFFFFF" transform="translate(0,0)"/>
<path d="" fill="#FFFFFF" transform="translate(0,0)"/>
<path d="" fill="#FFFFFF" transform="translate(0,0)"/>
<path d="" fill="#FFFFFF" transform="translate(0,0)"/>
<path d="" fill="#FFFFFF" transform="translate(0,0)"/>
<path d="" fill="#FFFFFF" transform="translate(0,0)"/>
<path d="" fill="#FFFFFF" transform="translate(0,0)"/>
<path d="" fill="#FFFFFF" transform="translate(0,0)"/>
<path d="" fill="#FFFFFF" transform="translate(0,0)"/>
<path d="" fill="#FFFFFF" transform="translate(0,0)"/>
<path d="" fill="#FFFFFF" transform="translate(0,0)"/>
<path d="" fill="#FFFFFF" transform="translate(0,0)"/>
<path d="" fill="#FFFFFF" transform="translate(0,0)"/>
<path d="" fill="#FFFFFF" transform="translate(0,0)"/>
<path d="" fill="#FFFFFF" transform="translate(0,0)"/>
<path d="" fill="#FFFFFF" transform="translate(0,0)"/>
<path d="" fill="#FFFFFF" transform="translate(0,0)"/>
<path d="" fill="#FFFFFF" transform="translate(0,0)"/>
<path d="" fill="#FFFFFF" transform="translate(0,0)"/>
<path d="" fill="#FFFFFF" transform="translate(0,0)"/>
<path d="" fill="#FFFFFF" transform="translate(0,0)"/>
</svg>
